<?xml version="1.0" standalone="no"?>
<!DOCTYPE svg PUBLIC "-//W3C//DTD SVG 20010904//EN"
 "http://www.w3.org/TR/2001/REC-SVG-20010904/DTD/svg10.dtd">
<svg version="1.0" xmlns="http://www.w3.org/2000/svg"
 width="1997.000000pt" height="2250.000000pt" viewBox="0 0 1997.000000 2250.000000"
 preserveAspectRatio="xMidYMid meet">

<g transform="translate(0.000000,2250.000000) scale(0.100000,-0.100000)"
fill="#000000" stroke="none">
<path d="M6725 13369 c-501 -60 -923 -274 -1187 -600 -127 -157 -216 -318
-281 -504 -51 -148 -54 -172 -77 -515 l-21 -315 -230 -516 c-126 -284 -229
-526 -229 -538 0 -29 43 -71 72 -71 13 0 183 67 378 148 l355 148 63 124 c34
69 100 204 146 300 l84 175 -5 -185 -6 -185 -99 -154 c-107 -168 -117 -200
-75 -239 23 -22 29 -22 314 -22 l292 0 132 -222 c362 -609 327 -556 372 -572
85 -31 1759 -506 1783 -506 27 0 74 40 74 63 0 8 -81 316 -181 683 -138 512
-186 674 -203 691 -13 13 -192 82 -486 188 -256 92 -469 172 -475 177 -8 7
-77 290 -72 294 1 1 171 -24 377 -55 l375 -56 65 -125 c58 -110 69 -126 97
-134 40 -11 79 11 89 50 8 33 -49 489 -82 653 -30 149 -64 237 -144 377 -33
57 -60 107 -60 112 0 4 135 145 300 314 259 264 300 311 300 337 0 36 -90 143
-202 239 -260 223 -553 360 -908 424 -133 23 -508 33 -645 17z m476 -149 c418
-43 794 -214 1052 -477 l47 -49 -300 -306 c-240 -246 -300 -312 -300 -333 0
-15 26 -69 59 -123 86 -140 148 -276 166 -362 18 -83 54 -314 51 -317 -1 -2
-198 27 -437 63 -239 36 -451 65 -472 66 -48 1 -77 -24 -77 -67 0 -38 95 -467
109 -494 12 -22 12 -22 560 -220 227 -82 416 -153 421 -158 10 -11 311 -1125
306 -1131 -3 -2 -364 99 -802 225 l-798 228 -223 375 c-122 206 -231 387 -243
402 l-20 28 -249 2 -249 3 68 107 68 108 8 237 c5 131 9 318 9 417 l0 179 -27
20 c-30 22 -69 18 -93 -11 -8 -9 -107 -212 -220 -451 -112 -239 -209 -439
-215 -445 -12 -12 -463 -205 -469 -200 -1 1 68 162 154 356 87 194 173 387
191 428 32 75 32 76 57 420 24 339 25 347 60 451 184 549 624 906 1237 1008
69 11 145 22 170 24 103 8 305 6 401 -3z"/>
<path d="M9645 12248 c-3 -7 -4 -164 -3 -348 l3 -335 250 0 c236 0 252 1 290
21 49 27 69 49 84 93 24 73 7 167 -40 217 -18 19 -18 22 -4 34 31 26 45 69 45
137 0 86 -21 129 -81 163 -43 25 -49 25 -292 28 -199 3 -248 1 -252 -10z m485
-124 c32 -32 37 -93 10 -126 l-21 -28 -185 0 -184 0 0 91 0 91 180 -4 c167 -3
181 -4 200 -24z m4 -285 c22 -17 26 -28 26 -70 0 -90 -33 -102 -265 -97 l-140
3 -3 93 -3 92 179 0 c166 0 181 -2 206 -21z"/>
<path d="M10923 12248 c-28 -36 -334 -651 -331 -666 2 -12 15 -18 47 -20 52
-4 69 9 101 78 l23 50 218 0 218 0 33 -62 33 -63 53 -3 c39 -2 54 1 58 12 3 8
-72 165 -166 350 l-172 336 -53 0 c-30 0 -57 -5 -62 -12z m64 -456 c-88 -1
-162 -1 -164 2 -2 2 33 77 78 167 l82 164 82 -165 83 -165 -161 -3z"/>
<path d="M11811 12245 c-84 -26 -121 -83 -121 -187 0 -139 49 -172 286 -193
247 -23 254 -26 254 -102 0 -81 -49 -99 -258 -92 -119 5 -158 19 -167 64 -17
83 -11 76 -68 73 l-52 -3 2 -53 c3 -73 36 -130 93 -162 44 -24 51 -25 230 -25
205 0 240 7 289 57 60 62 66 199 10 263 -44 50 -90 63 -283 79 -97 8 -185 20
-196 26 -25 13 -34 49 -26 96 11 56 47 66 223 62 145 -3 145 -3 169 -31 13
-15 24 -40 24 -56 0 -37 17 -51 61 -51 49 0 63 18 54 72 -15 89 -56 142 -129
163 -65 20 -332 20 -395 0z"/>
<path d="M12725 12248 c-3 -7 -4 -164 -3 -348 l3 -335 270 -3 c149 -1 280 0
293 3 21 5 23 11 20 53 l-3 47 -237 3 -238 2 0 95 0 95 153 0 c83 0 158 4 165
9 9 5 12 24 10 52 l-3 44 -162 3 -163 2 0 90 0 90 238 2 237 3 0 50 0 50 -288
3 c-225 2 -289 0 -292 -10z"/>
<path d="M9642 11258 c-9 -9 -12 -145 -12 -549 0 -475 2 -539 16 -553 14 -14
67 -16 440 -16 274 0 432 4 445 10 17 9 19 22 19 103 0 59 -4 97 -12 105 -9 9
-98 12 -340 12 l-328 0 0 438 c0 327 -3 441 -12 450 -16 16 -200 16 -216 0z"/>
<path d="M10672 11258 c-19 -19 -17 -808 3 -874 33 -111 108 -189 214 -222 48
-14 99 -17 336 -17 265 0 283 2 335 22 100 41 161 107 196 214 15 47 18 106
22 444 2 258 0 399 -7 418 l-11 27 -105 0 c-104 0 -106 0 -115 -26 -6 -15 -10
-186 -10 -414 l0 -390 -29 -32 -29 -33 -257 0 -257 0 -29 33 -29 32 0 390 c0
228 -4 399 -10 414 -9 25 -11 26 -108 26 -63 0 -102 -4 -110 -12z"/>
<path d="M11902 11258 c-8 -8 -12 -46 -12 -105 0 -81 2 -94 19 -103 12 -6 92
-10 190 -10 l171 0 0 -440 c0 -509 -13 -460 119 -460 131 0 121 -39 121 470
l0 430 166 0 c95 0 174 4 185 10 17 9 19 22 19 103 0 59 -4 97 -12 105 -17 17
-949 17 -966 0z"/>
<path d="M13274 11246 c-27 -42 -514 -1056 -514 -1071 0 -25 36 -35 127 -35
59 0 95 5 108 14 11 7 38 50 60 95 l39 81 312 0 311 0 37 -82 c21 -46 45 -89
54 -95 25 -20 206 -17 226 3 9 8 16 18 16 22 0 13 -503 1057 -518 1075 -13 14
-33 17 -128 17 -109 0 -114 -1 -130 -24z m245 -481 c56 -120 101 -223 101
-227 0 -4 -97 -8 -215 -8 -118 0 -215 3 -215 7 0 21 214 463 221 456 4 -4 53
-107 108 -228z"/>
<path d="M14299 11247 c-85 -29 -128 -62 -162 -124 -55 -102 -55 -278 -1 -371
55 -93 154 -123 484 -147 126 -10 239 -23 258 -31 66 -27 71 -143 9 -185 -29
-18 -422 -27 -479 -10 -44 14 -78 53 -78 92 0 53 -29 69 -123 69 -114 0 -122
-7 -114 -96 13 -138 90 -242 210 -280 67 -22 466 -32 578 -15 171 27 253 101
280 255 21 123 -4 230 -71 297 -67 67 -131 85 -359 104 -339 28 -353 30 -378
60 -32 37 -32 104 1 142 l24 28 230 3 229 3 31 -26 c20 -17 34 -39 38 -63 13
-71 14 -72 123 -72 120 0 127 5 117 88 -16 146 -89 244 -211 281 -61 19 -91
21 -319 21 -234 0 -255 -2 -317 -23z"/>
</g>
</svg>
