<svg version="1.1" id="Layer_1" xmlns="http://www.w3.org/2000/svg" xmlns:xlink="http://www.w3.org/1999/xlink" x="0px" y="0px"
	 width="100%" viewBox="0 0 896 1024" enable-background="new 0 0 896 1024" xml:space="preserve">
<path fill="#000000" opacity="1.000000" stroke="none" 
	d="
M195.741364,558.911987 
	C190.575836,558.573547 190.714630,555.038330 190.713562,551.628723 
	C190.706100,527.797852 191.076172,503.958282 190.507095,480.141022 
	C190.316605,472.168488 192.782211,467.766418 199.888489,464.204468 
	C212.234650,458.016235 224.120743,450.887756 236.038345,443.879120 
	C240.127182,441.474518 243.714096,440.933685 248.182678,442.938416 
	C257.142761,446.958160 266.369598,450.379181 275.406708,454.233978 
	C277.899658,455.297333 279.999420,455.365417 282.514618,454.299744 
	C292.175598,450.206543 301.955811,446.394989 311.620880,442.311035 
	C314.673798,441.020996 317.235840,441.229431 320.108826,442.878174 
	C333.979431,450.837891 347.878143,458.753601 361.904572,466.433502 
	C365.920685,468.632416 367.467529,471.349823 367.431213,475.968597 
	C367.233337,501.131104 367.354828,526.295959 367.331299,551.460022 
	C367.324280,558.980835 365.542358,560.229492 358.688141,557.594727 
	C345.943542,552.695618 333.187469,547.824036 320.499176,542.782471 
	C317.944641,541.767517 315.871765,541.870605 313.424652,543.075012 
	C303.412384,548.002869 293.254700,552.636658 283.269958,557.618103 
	C280.267700,559.115967 277.825134,559.094238 274.836823,557.603638 
	C264.999451,552.696533 254.983231,548.148438 245.135727,543.260925 
	C242.360031,541.883362 240.012466,541.806458 237.124847,542.954102 
	C223.508209,548.365845 209.804443,553.558411 195.741364,558.911987 
M311.642242,535.052673 
	C314.871490,532.954346 318.058258,533.182495 321.582703,534.610474 
	C331.912384,538.795593 342.340485,542.738892 352.748657,546.728271 
	C354.538788,547.414429 356.284546,548.648254 358.595520,547.723633 
	C359.384521,545.390930 359.555725,542.926575 359.557037,540.435608 
	C359.567993,520.124817 359.498383,499.813354 359.661652,479.503754 
	C359.691010,475.849060 358.419098,473.671204 355.284729,471.939545 
	C343.048615,465.179382 330.872223,458.308502 318.757111,451.333832 
	C316.151886,449.833984 313.952362,449.914154 311.272644,451.069641 
	C303.482391,454.428650 295.640106,457.686249 287.700714,460.670929 
	C284.374420,461.921356 283.194244,463.696716 283.215454,467.288849 
	C283.365692,492.759735 283.283813,518.231934 283.325470,543.703613 
	C283.327698,545.078308 282.672485,546.726379 284.541901,547.974731 
	C293.278931,543.820862 302.128906,539.613281 311.642242,535.052673 
M274.781677,525.500000 
	C274.780365,506.172699 274.687225,486.844604 274.860352,467.518860 
	C274.892395,463.943420 273.711365,462.063477 270.442871,460.793457 
	C262.218323,457.597717 254.051453,454.242493 245.953644,450.738129 
	C243.480011,449.667664 241.583466,450.114899 239.416992,451.347321 
	C227.546021,458.100189 215.683395,464.872620 203.683853,471.391571 
	C200.115326,473.330200 198.898514,475.806427 198.928207,479.775085 
	C199.085327,500.767303 198.995560,521.761292 199.040375,542.754578 
	C199.044128,544.515503 198.577789,546.430115 199.953400,548.010620 
	C201.563431,548.462402 202.887146,547.618591 204.249268,547.095947 
	C212.022095,544.113586 220.081802,541.688843 227.470627,537.943420 
	C236.913834,533.156616 245.466904,532.725098 254.515900,538.778259 
	C259.173737,541.893921 264.634491,543.822815 269.776550,546.192200 
	C271.200836,546.848511 272.511414,548.207275 274.781372,547.291077 
	C274.781372,540.445435 274.781372,533.472717 274.781677,525.500000 
z"/>
<path fill="#000000" opacity="1.000000" stroke="none" 
	d="
M414.937256,542.000000 
	C414.947449,534.849182 414.999176,528.198059 414.952240,521.547668 
	C414.923370,517.460022 416.527191,515.526917 420.926666,515.655945 
	C429.066986,515.894714 437.223358,515.563965 445.365570,515.768188 
	C451.428040,515.920227 457.842133,516.448914 460.847656,522.753357 
	C463.794647,528.934998 463.393219,535.328735 458.894714,541.310852 
	C460.278809,543.962158 462.180298,546.463867 462.845551,549.611389 
	C464.814758,558.928284 459.727509,566.578979 450.139435,567.107056 
	C439.861176,567.673157 429.530151,567.261780 419.222412,567.323120 
	C415.841522,567.343201 414.996613,565.257202 414.981445,562.452393 
	C414.945526,555.801697 414.949402,549.150818 414.937256,542.000000 
M445.078613,556.771606 
	C448.719849,556.767700 451.765930,556.101929 451.717102,551.428223 
	C451.667816,546.714355 448.499268,546.244446 444.924561,546.239319 
	C440.285736,546.232727 435.638031,546.412842 431.010925,546.179626 
	C427.257538,545.990417 426.048187,547.530579 426.176575,551.132080 
	C426.291748,554.364197 426.184692,557.119385 430.746735,556.845642 
	C435.203796,556.578308 439.689514,556.788208 445.078613,556.771606 
M451.059448,533.746094 
	C451.602295,528.519165 450.177185,526.617188 445.074402,526.424011 
	C440.101318,526.235718 435.110352,526.519775 430.137115,526.333191 
	C425.972504,526.176819 426.273224,528.889099 426.235443,531.625061 
	C426.196320,534.458313 426.178589,537.017151 430.217896,536.892029 
	C435.359131,536.732788 440.508911,536.863831 445.654846,536.835632 
	C447.705139,536.824402 449.662689,536.526855 451.059448,533.746094 
z"/>
<path fill="#000000" opacity="1.000000" stroke="none" 
	d="
M535.905762,558.202148 
	C533.714783,564.738708 528.732666,566.974915 522.984131,567.183044 
	C513.012573,567.543945 503.019531,567.284912 493.036041,567.357239 
	C489.833496,567.380432 488.642181,565.894653 488.657837,562.770325 
	C488.728638,548.626404 488.731537,534.481689 488.650513,520.337830 
	C488.630310,516.812500 490.346283,515.678589 493.581116,515.703613 
	C502.399963,515.771912 511.226440,515.513367 520.037476,515.786194 
	C534.457703,516.232788 540.321777,526.677368 533.467163,539.447937 
	C532.767273,540.751770 532.286011,541.837524 533.313538,543.064758 
	C537.002258,547.470337 536.584290,552.620544 535.905762,558.202148 
M502.951294,546.244690 
	C497.472015,546.418030 499.774200,550.612488 499.423645,553.299316 
	C499.031830,556.302307 501.088562,556.831482 503.546143,556.804810 
	C508.695770,556.748779 513.847229,556.701111 518.995972,556.778992 
	C522.769043,556.835999 525.272461,555.277100 525.302612,551.395813 
	C525.334595,547.257996 522.312622,546.267151 518.806274,546.252808 
	C513.822266,546.232422 508.838165,546.240356 502.951294,546.244690 
M520.508423,526.642822 
	C514.882324,526.553284 509.251556,526.575134 503.631714,526.337891 
	C499.392120,526.158875 499.354828,528.788757 499.317352,531.851074 
	C499.280365,534.871887 499.649475,537.048645 503.515076,536.902954 
	C508.643127,536.709839 513.783875,536.873047 518.918945,536.838379 
	C521.312195,536.822205 523.809875,536.601379 524.472107,533.753113 
	C525.160706,530.791504 524.714661,528.080505 520.508423,526.642822 
z"/>
<path fill="#000000" opacity="1.000000" stroke="none" 
	d="
M607.647705,548.862976 
	C607.654114,542.885254 607.560669,537.386353 607.691589,531.892822 
	C607.900635,523.117310 612.176758,517.459290 620.817139,516.276855 
	C629.357178,515.108276 638.103333,514.826233 646.649231,516.599854 
	C654.072205,518.140381 658.776001,524.943909 658.351746,532.406738 
	C658.197632,535.117371 657.071289,536.540283 654.385376,536.262085 
	C651.864807,536.001038 648.107605,537.730530 647.713074,533.251343 
	C647.212463,527.567993 643.943604,526.079041 638.863525,526.327087 
	C634.376648,526.546143 629.871338,526.420776 625.374512,526.392639 
	C620.858582,526.364441 618.526550,528.680786 618.430176,533.073486 
	C618.305969,538.733398 618.299988,544.401245 618.450684,550.060059 
	C618.565247,554.362000 620.621094,556.860901 625.315002,556.733521 
	C630.308167,556.598083 635.312866,556.562256 640.303101,556.742493 
	C644.838318,556.906250 647.384949,554.853455 647.530334,550.441589 
	C647.692871,545.510010 651.044983,546.059387 654.205383,546.044067 
	C657.895691,546.026123 658.399963,548.327148 658.339294,551.382080 
	C658.152039,560.812805 652.244080,567.005432 642.711365,567.301880 
	C637.053589,567.477844 631.386108,567.388367 625.723450,567.353882 
	C613.311584,567.278381 607.843323,561.810730 607.647705,548.862976 
z"/>
<path fill="#000000" opacity="1.000000" stroke="none" 
	d="
M712.157043,554.925171 
	C713.613464,557.961548 714.975098,560.631653 716.190369,563.366760 
	C717.260376,565.774902 716.539673,567.166687 713.733459,567.336365 
	C709.264526,567.606628 704.965149,567.825378 703.389709,562.164062 
	C702.650452,559.507568 700.408386,558.887634 697.854736,558.906250 
	C691.198242,558.954712 684.539001,559.020020 677.885315,558.874084 
	C674.799622,558.806396 673.028992,560.026245 671.699707,562.793762 
	C669.632690,567.097107 665.626770,568.552185 660.984924,567.220154 
	C657.934326,566.344604 658.788147,564.385498 659.661682,562.519226 
	C662.694275,556.040771 665.756042,549.575317 668.874634,543.137756 
	C672.646301,535.352112 676.620972,527.661499 680.237061,519.805176 
	C681.853271,516.293640 684.371033,515.625061 687.842041,515.627380 
	C691.352844,515.629700 693.759094,516.476562 695.372498,519.946411 
	C700.772400,531.559387 706.435974,543.049744 712.157043,554.925171 
M693.384521,540.073242 
	C691.652100,536.432922 689.919739,532.792542 687.808594,528.356262 
	C684.436340,535.670227 681.018555,541.807373 678.500549,549.157837 
	C685.046936,549.805298 690.650024,549.902588 696.349548,549.244507 
	C696.465271,545.645020 694.638428,543.349243 693.384521,540.073242 
z"/>
<path fill="#000000" opacity="1.000000" stroke="none" 
	d="
M327.904358,562.005249 
	C334.438629,565.025085 340.641449,567.862610 346.810974,570.770569 
	C349.246033,571.918335 352.152527,573.210266 350.744049,576.586853 
	C349.290894,580.070618 346.372009,579.410095 343.549744,578.090576 
	C336.316681,574.708496 328.967926,571.556824 321.859375,567.932617 
	C318.198181,566.066040 315.075897,566.259888 311.479187,567.938599 
	C302.135529,572.299561 292.618195,576.288452 283.276306,580.653076 
	C280.279572,582.053223 277.742249,582.016174 274.775513,580.641479 
	C265.116669,576.165833 255.314697,571.999023 245.659637,567.515442 
	C242.665070,566.124878 240.087357,566.154053 237.140579,567.580139 
	C229.655197,571.202820 222.060120,574.598877 214.508057,578.083679 
	C211.751801,579.355530 208.880905,580.262939 207.379898,576.583313 
	C205.958054,573.097595 208.832993,571.898682 211.250870,570.764893 
	C219.986389,566.668457 228.786987,562.709534 237.490845,558.547791 
	C240.327515,557.191406 242.849579,557.436584 245.596008,558.686096 
	C255.437897,563.163696 265.371552,567.442078 275.169586,572.012085 
	C277.814331,573.245605 279.959106,573.400330 282.654236,572.120483 
	C290.315948,568.482239 298.430450,565.696960 305.791321,561.553711 
	C313.432281,557.252808 320.364441,556.969788 327.904358,562.005249 
z"/>
<path fill="#000000" opacity="1.000000" stroke="none" 
	d="
M554.048706,567.356445 
	C543.551270,567.190918 542.904419,569.318420 542.994568,556.733826 
	C543.078064,545.071045 543.085449,533.406921 543.016052,521.744080 
	C542.989990,517.375183 544.655151,515.363098 549.291687,515.648438 
	C552.884460,515.869568 554.348328,517.280945 554.316101,520.855774 
	C554.224365,531.018799 554.455261,541.186890 554.222534,551.345337 
	C554.128479,555.452393 555.416382,556.972778 559.605225,556.803894 
	C566.425415,556.528992 573.267273,556.841797 580.095642,556.699463 
	C584.048279,556.617126 585.268921,558.454773 585.354126,562.173157 
	C585.444641,566.124390 583.864136,567.476868 580.031860,567.402588 
	C571.537354,567.237793 563.037476,567.354248 554.048706,567.356445 
z"/>
<path fill="#000000" opacity="1.000000" stroke="none" 
	d="
M437.464600,465.775726 
	C443.747559,468.088898 445.894501,472.083740 443.824066,477.935089 
	C442.989685,480.293152 442.881287,482.028137 443.828186,484.435791 
	C446.623657,491.543793 443.146484,496.805542 435.532379,497.194794 
	C430.227112,497.466034 424.896545,497.220642 419.577637,497.257507 
	C416.869690,497.276276 415.662994,496.000244 415.674835,493.308655 
	C415.709900,485.329742 415.729431,477.350098 415.651245,469.371704 
	C415.623840,466.576355 416.873016,465.535126 419.569275,465.588379 
	C425.385101,465.703186 431.203552,465.687286 437.464600,465.775726 
M421.172485,485.883728 
	C421.326263,488.184998 419.995728,491.413086 423.838654,491.724091 
	C427.793365,492.044159 431.799103,491.847198 435.777191,491.715912 
	C437.694061,491.652618 438.767273,490.385559 438.910248,488.472809 
	C439.040680,486.727631 438.776733,484.717285 436.938782,484.320801 
	C431.721802,483.195190 426.392334,481.926239 421.172485,485.883728 
M421.174835,472.870056 
	C421.329803,475.157379 419.957794,478.350037 423.919434,478.599213 
	C427.722565,478.838470 431.555420,478.699982 435.371643,478.596344 
	C437.219727,478.546143 438.507446,477.561737 438.743744,475.586243 
	C438.952911,473.837067 438.789917,471.812073 436.941284,471.387085 
	C431.732330,470.189728 426.409363,468.947449 421.174835,472.870056 
z"/>
<path fill="#000000" opacity="1.000000" stroke="none" 
	d="
M600.333008,546.999634 
	C600.327271,552.657776 600.191040,557.820190 600.356140,562.973022 
	C600.490112,567.154480 597.934998,567.357117 594.828003,567.382324 
	C591.783386,567.407043 589.627380,566.879578 589.647461,563.110474 
	C589.723633,548.800964 589.745544,534.490295 589.639526,520.181152 
	C589.609131,516.080444 591.994446,515.734070 595.154053,515.690063 
	C598.596436,515.642273 600.429932,516.725037 600.367310,520.542664 
	C600.225403,529.192871 600.328979,537.847168 600.333008,546.999634 
z"/>
<path fill="#000000" opacity="1.000000" stroke="none" 
	d="
M469.687439,526.042664 
	C469.684937,524.219971 469.797668,522.877563 469.661591,521.560852 
	C469.220886,517.297424 470.951843,515.627075 475.342468,515.625854 
	C479.893921,515.624634 480.432526,517.982422 480.404236,521.636169 
	C480.299896,535.108459 480.280243,548.583008 480.423523,562.054565 
	C480.463593,565.821472 479.307312,567.432556 475.307098,567.439270 
	C471.272797,567.446045 469.600677,566.126038 469.654877,561.963196 
	C469.808685,550.155518 469.696289,538.344421 469.687439,526.042664 
z"/>
<path fill="#000000" opacity="1.000000" stroke="none" 
	d="
M531.725708,484.916321 
	C527.102661,484.233704 522.821533,483.662537 518.522766,483.298401 
	C511.966919,482.743103 508.937378,480.221039 508.748169,474.927704 
	C508.542419,469.171265 511.366455,466.442932 517.980896,465.517700 
	C522.338684,464.908142 526.633423,465.459839 530.922485,465.814941 
	C535.107178,466.161377 537.355713,468.981720 538.127869,472.968781 
	C538.380920,474.275543 538.454590,475.729858 536.829773,476.345459 
	C535.189209,476.967041 534.052063,476.392853 533.090393,474.877106 
	C530.478577,470.760162 520.020203,468.654724 516.010803,471.300873 
	C514.569153,472.252319 514.180481,473.568573 514.337463,475.173950 
	C514.513550,476.973969 515.764343,477.898407 517.292480,478.095306 
	C520.745300,478.540161 524.261780,478.530670 527.697021,479.063019 
	C532.044250,479.736633 536.911560,479.696289 538.480530,485.350739 
	C540.006775,490.851013 537.542236,495.665283 531.974915,496.774902 
	C526.572327,497.851715 521.012024,497.682129 515.584045,496.863007 
	C511.511017,496.248352 509.313416,493.328430 508.794586,489.268616 
	C508.620026,487.902893 508.808502,486.498749 510.433594,486.041809 
	C511.899719,485.629578 513.078796,486.155579 513.669495,487.613647 
	C514.510681,489.689819 515.454468,491.714264 518.094299,491.721161 
	C522.710938,491.733215 527.548157,493.035797 531.856445,490.924011 
	C534.317688,489.717590 534.281799,487.151825 531.725708,484.916321 
z"/>
<path fill="#000000" opacity="1.000000" stroke="none" 
	d="
M561.137573,474.099731 
	C560.831238,477.492310 562.121033,478.837646 565.160645,478.659668 
	C567.317810,478.533325 569.491943,478.590729 571.653687,478.680725 
	C573.407471,478.753784 575.721252,478.357056 575.623047,481.149261 
	C575.539490,483.524719 573.491455,483.296539 571.856140,483.340149 
	C569.692383,483.397888 567.521118,483.460266 565.362183,483.347107 
	C562.477661,483.195923 561.090027,484.242218 561.055420,487.335114 
	C561.020569,490.448090 562.017944,492.003479 565.337769,491.902496 
	C569.497375,491.776001 573.665527,491.837067 577.827698,491.926758 
	C579.775635,491.968719 582.198364,491.745514 582.165161,494.715057 
	C582.135620,497.355682 579.949524,497.251190 578.135315,497.262146 
	C571.973267,497.299438 565.810547,497.232361 559.648376,497.258972 
	C556.968872,497.270569 555.675415,496.078613 555.685852,493.351410 
	C555.716919,485.190674 555.726501,477.029419 555.662476,468.869019 
	C555.642090,466.271301 556.919128,465.299652 559.332092,465.309082 
	C565.815796,465.334412 572.299866,465.301331 578.783142,465.363312 
	C580.478027,465.379517 582.284912,465.560913 582.173340,467.980347 
	C582.062744,470.382507 580.208801,470.343628 578.543213,470.363068 
	C574.046875,470.415649 569.549377,470.425507 565.052856,470.388489 
	C562.752258,470.369568 561.082031,470.961517 561.137573,474.099731 
z"/>
<path fill="#000000" opacity="1.000000" stroke="none" 
	d="
M487.056885,492.748199 
	C480.699310,490.128632 474.401398,491.597198 468.186890,491.610443 
	C466.552887,491.613983 465.944061,493.408844 465.200439,494.693451 
	C463.827301,497.065582 462.025909,497.978424 459.474640,496.485931 
	C458.570648,494.591278 459.842926,493.240326 460.561951,491.833954 
	C464.417114,484.293304 468.329010,476.781555 472.242157,469.270721 
	C473.157562,467.513672 473.947388,465.710541 476.473358,465.624512 
	C479.180847,465.532288 480.264374,467.264435 481.269562,469.244232 
	C485.103271,476.794922 488.980316,484.324432 492.718414,491.922211 
	C493.439026,493.386871 495.392792,495.321777 493.158875,496.715668 
	C490.814453,498.178528 489.151367,496.481659 488.048218,494.351166 
	C487.819366,493.909180 487.552826,493.486755 487.056885,492.748199 
M480.677612,486.674652 
	C482.401550,486.640076 483.883789,486.253113 482.806732,484.085236 
	C480.938202,480.324219 479.553955,476.274994 476.598602,472.567047 
	C473.885071,477.195984 471.623016,481.461609 469.632843,486.689514 
	C473.627625,486.689514 476.752014,486.689514 480.677612,486.674652 
z"/>
<path fill="#000000" opacity="1.000000" stroke="none" 
	d="
M479.898865,502.824463 
	C484.372742,502.937286 484.751373,504.842102 482.799500,507.891144 
	C482.444031,508.446411 482.062744,508.988342 481.748901,509.566528 
	C480.002808,512.782959 477.260803,513.799988 473.829132,513.009033 
	C472.060455,512.601318 471.415405,511.158173 471.975311,509.565125 
	C473.037598,506.542664 473.538849,502.875885 477.994476,502.835754 
	C478.489014,502.831299 478.983459,502.822693 479.898865,502.824463 
z"/>
</svg>