<svg version="1.1" id="Layer_1" xmlns="http://www.w3.org/2000/svg" xmlns:xlink="http://www.w3.org/1999/xlink" x="0px" y="0px"
	 width="100%" viewBox="0 0 896 1024" enable-background="new 0 0 896 1024" xml:space="preserve">
<path fill="#000000" opacity="1.000000" stroke="none" 
	d="
M285.813721,561.964844 
	C282.245636,569.507019 278.916931,576.777771 275.407532,583.960205 
	C274.144806,586.544556 272.951416,590.258057 268.980011,588.333191 
	C265.226715,586.513977 266.802612,583.310791 268.118866,580.540405 
	C271.693329,573.017273 275.194702,565.456238 278.945221,558.021240 
	C280.987671,553.972412 281.075256,550.257385 279.086060,546.123962 
	C272.585785,532.616760 266.188080,519.056885 260.011597,505.399384 
	C258.246796,501.497040 256.174408,500.526550 252.264435,502.224854 
	C248.019638,504.068573 243.579941,505.463593 238.488968,507.323242 
	C241.003906,512.775757 243.365829,517.830444 245.667191,522.912537 
	C246.901123,525.637451 248.197205,528.353455 249.149200,531.179993 
	C249.783081,533.062073 249.137558,534.884766 247.177719,535.796509 
	C245.166733,536.732117 243.315399,535.911377 242.466080,534.171204 
	C238.378983,525.797241 234.184311,517.450500 230.678940,508.829315 
	C229.110504,504.971863 231.376999,501.102051 235.281799,500.068665 
	C243.905746,497.786469 249.405258,491.659027 255.178360,485.661041 
	C261.071045,479.538727 267.014893,473.461884 273.077271,467.508636 
	C275.187164,465.436737 275.672607,463.738251 274.004791,461.052521 
	C271.564514,457.122986 269.611572,452.890808 267.277527,448.458191 
	C263.148743,450.936951 260.526001,454.390045 257.586182,457.437683 
	C242.779602,472.787537 228.062408,488.223602 213.283173,503.599915 
	C207.084000,510.049561 206.650803,512.525513 210.399063,520.447815 
	C214.815643,529.782776 219.023956,539.219727 223.619431,548.464844 
	C225.364532,551.975647 225.456879,554.987366 223.505005,558.331787 
	C221.914047,561.057739 220.791763,564.057495 219.198883,566.782166 
	C218.107437,568.649231 216.311752,569.667053 214.114319,568.425903 
	C212.114777,567.296631 211.461288,565.538330 212.283401,563.323914 
	C212.341339,563.167908 212.381332,562.992920 212.480057,562.866028 
	C218.482986,555.149536 215.245880,548.098267 211.270569,540.806641 
	C207.847687,534.528198 205.164474,527.850830 202.013916,521.418579 
	C198.257614,513.749695 199.355667,506.879883 205.187347,500.768860 
	C224.627777,480.397125 244.079300,460.035828 263.586853,439.728485 
	C267.427185,435.730743 269.631561,436.051300 272.390900,441.002228 
	C276.120728,447.694427 279.568695,454.542999 283.219574,461.280090 
	C285.063141,464.682159 284.681000,467.418396 281.808441,470.202576 
	C275.827301,475.999481 270.070770,482.028961 264.257996,487.997955 
	C263.000732,489.289032 261.895691,490.728363 260.489899,492.368469 
	C264.542419,495.112915 265.920105,499.271881 267.745361,503.137024 
	C273.648926,515.638306 279.511597,528.158875 285.409943,540.662598 
	C286.102356,542.130493 286.918732,543.539917 288.099152,545.774414 
	C290.515411,540.820557 292.641266,536.571106 294.671997,532.276672 
	C299.443054,522.187195 304.178680,512.080811 308.907104,501.971222 
	C310.529205,498.503174 312.030182,494.967072 315.522095,492.647797 
	C313.832367,488.817657 310.515503,486.701263 307.948914,483.986694 
	C303.485321,479.265686 298.900208,474.652405 294.217621,470.148254 
	C291.352417,467.392242 291.062714,464.564575 292.912750,461.177338 
	C296.506042,454.598297 299.941772,447.933228 303.536133,441.354797 
	C306.505371,435.920380 308.617767,435.623657 312.936310,440.120697 
	C327.132355,454.903168 341.263153,469.748291 355.436859,484.552277 
	C360.276764,489.607452 365.255859,494.531830 370.017700,499.658691 
	C377.145752,507.333160 377.956421,512.994324 373.573517,522.385620 
	C369.699341,530.686768 366.095978,539.128967 361.857025,547.239197 
	C359.613068,551.532532 359.418701,555.077820 361.857483,559.291260 
	C363.440125,562.025452 366.709534,565.945068 361.911194,568.261475 
	C357.126129,570.571350 356.605225,565.365540 354.810120,562.695618 
	C350.603271,556.438721 350.698822,550.537720 354.567688,543.791870 
	C359.274872,535.584290 362.706879,526.652100 366.837311,518.104248 
	C368.978485,513.673218 368.631226,509.780426 365.199799,506.204315 
	C347.202850,487.448242 329.211273,468.687042 311.205688,449.939240 
	C310.758575,449.473663 310.171509,449.142426 309.188812,448.400635 
	C305.905426,453.165070 303.651978,458.288086 301.171600,463.271912 
	C300.305634,465.011993 301.648102,466.050781 302.692261,467.116852 
	C311.670074,476.282990 320.670502,485.427063 329.619080,494.621643 
	C331.824493,496.887665 334.721130,497.688599 337.522949,498.701355 
	C345.982178,501.759125 347.497589,505.273773 343.695831,513.524597 
	C340.907745,519.575500 338.014862,525.578308 335.143951,531.590759 
	C333.909393,534.176208 332.605194,537.394043 329.019165,535.749329 
	C325.229034,534.010925 326.737640,530.737061 328.004395,527.967529 
	C331.043793,521.322754 334.175018,514.719971 337.655090,507.274567 
	C331.679474,505.139526 326.129028,503.140259 320.565765,501.177490 
	C318.648010,500.500885 317.834808,501.813507 317.167328,503.240082 
	C310.108795,518.326233 303.040588,533.407837 296.020966,548.512085 
	C294.640900,551.481628 295.418945,554.330200 296.779388,557.146912 
	C300.111755,564.046204 303.363647,570.984436 306.638062,577.911682 
	C307.420959,579.567993 308.277374,581.201843 308.899353,582.918701 
	C309.712616,585.163635 309.531464,587.303345 307.087860,588.452698 
	C304.545929,589.648315 302.898560,588.205139 301.860840,586.087585 
	C298.269165,578.758301 294.781708,571.378052 291.238281,564.025024 
	C290.317810,562.114929 289.338196,560.233398 288.358398,558.284302 
	C286.800354,559.134766 286.660889,560.577698 285.813721,561.964844 
z"/>
<path fill="#000000" opacity="1.000000" stroke="none" 
	d="
M528.318848,542.072388 
	C528.032410,548.356140 529.036133,554.214417 527.658630,559.950134 
	C525.669922,568.230347 520.929443,572.130798 512.472168,572.314331 
	C505.658173,572.462280 498.838135,572.406982 492.021637,572.346436 
	C482.041931,572.257874 476.599854,568.018127 475.271515,558.252930 
	C474.198914,550.367981 474.140259,542.311584 475.431488,534.414551 
	C476.761017,526.283020 480.733429,522.293457 488.816681,521.274902 
	C497.064697,520.235535 505.450806,520.236938 513.693909,521.182678 
	C523.465759,522.303833 527.894409,527.699707 528.293213,537.593567 
	C528.346741,538.921814 528.312256,540.253601 528.318848,542.072388 
M517.086731,550.422852 
	C517.056702,546.096680 517.047180,541.770203 516.990601,537.444336 
	C516.940125,533.591309 514.845459,531.542969 511.101196,531.467224 
	C504.780060,531.339294 498.452942,531.339844 492.131470,531.456360 
	C488.418488,531.524658 486.218658,533.438171 486.213593,537.362427 
	C486.205414,543.685547 486.215698,550.008667 486.223755,556.331787 
	C486.228058,559.711792 487.749084,561.717834 491.297516,561.732239 
	C498.119812,561.759949 504.942352,561.748352 511.764740,561.735474 
	C514.985718,561.729431 516.696716,560.067078 516.890076,556.874390 
	C517.000549,555.049255 517.024170,553.218811 517.086731,550.422852 
z"/>
<path fill="#000000" opacity="1.000000" stroke="none" 
	d="
M465.079834,526.034668 
	C466.637390,527.906189 467.454010,529.770386 467.794708,531.731689 
	C468.252472,534.367004 469.811401,537.877686 465.794342,538.796204 
	C462.660034,539.512878 458.648743,540.615845 457.320312,535.466431 
	C456.603607,532.688232 454.220947,531.574280 451.557007,531.497498 
	C446.728760,531.358276 441.890717,531.328857 437.063416,531.474731 
	C434.267761,531.559265 431.691925,532.373474 431.390717,535.850769 
	C431.060699,539.660645 433.570190,540.771606 436.655762,541.081116 
	C442.614075,541.678772 448.580505,542.207886 454.551178,542.666565 
	C464.898712,543.461365 469.417603,548.024414 469.292786,557.676208 
	C469.173584,566.893188 463.831085,572.086609 453.983826,572.305542 
	C447.655060,572.446289 441.314301,572.494141 434.989899,572.271545 
	C426.765198,571.982056 421.359955,567.147217 420.688904,559.717590 
	C420.523193,557.882507 419.632172,555.137390 422.593719,554.928711 
	C425.476044,554.725708 429.569885,552.901001 430.929840,556.960754 
	C432.398346,561.344421 435.282074,561.885437 439.015320,561.828003 
	C443.513550,561.758789 448.013306,561.790527 452.512421,561.781006 
	C455.664856,561.774292 458.328247,560.838867 458.506317,557.231995 
	C458.685394,553.604248 456.186340,552.504211 452.976501,552.234619 
	C446.178314,551.663574 439.365387,551.157288 432.605591,550.266968 
	C424.468201,549.195312 420.873535,545.153320 420.671326,537.513367 
	C420.417786,527.934387 423.707886,523.137878 432.188171,521.630798 
	C440.263550,520.195740 448.422668,520.392883 456.549103,521.522522 
	C459.799103,521.974304 462.586090,523.328430 465.079834,526.034668 
z"/>
<path fill="#000000" opacity="1.000000" stroke="none" 
	d="
M545.287781,521.819458 
	C554.790894,520.252014 563.943298,520.094238 573.001526,521.655457 
	C580.710083,522.984070 585.590942,529.808228 585.232605,537.582092 
	C585.120483,540.016052 584.111389,541.492188 581.627075,541.281738 
	C578.917114,541.052002 574.730164,542.892151 574.307617,538.427002 
	C573.687988,531.878235 569.714417,531.187561 564.572021,531.361084 
	C560.412476,531.501465 556.244629,531.404480 552.080505,531.396912 
	C547.849243,531.389221 545.458252,533.419678 545.391785,537.708252 
	C545.299011,543.703064 545.304016,549.701172 545.385010,555.696228 
	C545.439087,559.699768 547.470398,561.832092 551.622375,561.791504 
	C557.118347,561.737732 562.615051,561.755920 568.111450,561.757019 
	C571.678650,561.757690 573.528564,560.137390 574.034424,556.458008 
	C574.712524,551.526306 576.580200,550.483887 581.466492,551.211182 
	C586.336426,551.936035 585.427551,555.460876 584.985107,558.476074 
	C583.649597,567.576294 578.316101,572.164429 568.988586,572.334656 
	C562.661377,572.450195 556.327209,572.469482 550.001526,572.314636 
	C540.871216,572.091125 534.959473,566.344788 534.696655,557.318787 
	C534.493164,550.329285 534.500549,543.324524 534.702515,536.334900 
	C534.903076,529.391541 537.919617,524.201355 545.287781,521.819458 
z"/>
<path fill="#000000" opacity="1.000000" stroke="none" 
	d="
M663.926880,567.350342 
	C665.608093,570.776550 664.919861,572.247864 661.232422,572.424805 
	C656.723328,572.641174 652.915771,572.249268 651.542908,566.969421 
	C650.965332,564.748108 649.159302,563.985474 646.908020,563.996704 
	C639.749268,564.032288 632.589172,564.062439 625.431824,563.951782 
	C622.694336,563.909546 621.263306,565.131836 620.130493,567.537720 
	C617.945740,572.177368 614.192993,573.601929 609.157349,572.284851 
	C606.802856,571.669067 606.771484,570.300659 607.617493,568.537231 
	C614.815552,553.533020 621.853699,538.447754 629.341431,523.589172 
	C631.862732,518.585999 641.012146,519.734863 643.645447,525.149780 
	C650.413757,539.067444 657.063232,553.042908 663.926880,567.350342 
M643.662720,549.637146 
	C641.089417,544.576660 639.425842,539.039795 635.774292,533.808167 
	C632.545288,540.850342 629.600464,547.272644 626.377197,554.302246 
	C633.080139,554.302246 638.940308,554.302246 645.288025,554.302246 
	C644.755371,552.720703 644.348877,551.513672 643.662720,549.637146 
z"/>
<path fill="#000000" opacity="1.000000" stroke="none" 
	d="
M680.344055,551.935547 
	C680.492371,562.478027 678.881226,561.798462 689.663391,561.803345 
	C695.149658,561.805847 700.639893,561.916260 706.120850,561.742554 
	C709.947083,561.621277 711.470642,563.091675 711.444885,567.002991 
	C711.420776,570.659180 710.537231,572.524902 706.420593,572.449097 
	C695.783997,572.253296 685.140625,572.286621 674.502136,572.413940 
	C670.769653,572.458557 669.589661,570.856079 669.618835,567.308716 
	C669.732361,553.510803 669.762817,539.710388 669.611877,525.913269 
	C669.567932,521.901306 671.271179,520.698059 675.006592,520.757996 
	C678.690002,520.817261 680.478943,522.003418 680.388184,526.012695 
	C680.196289,534.487061 680.338501,542.968933 680.344055,551.935547 
z"/>
<path fill="#000000" opacity="1.000000" stroke="none" 
	d="
M449.487427,488.016785 
	C453.220184,496.856812 449.977905,502.032227 440.834656,502.270264 
	C436.023163,502.395538 431.204071,502.216553 426.391602,502.321228 
	C423.314941,502.388123 421.737183,501.224152 421.759033,497.993683 
	C421.811737,490.190918 421.799225,482.387207 421.741638,474.584412 
	C421.721680,471.881989 422.891815,470.631409 425.613342,470.659821 
	C431.257446,470.718719 436.913391,470.478302 442.544098,470.763702 
	C449.344635,471.108429 452.689911,476.825653 450.081360,483.203552 
	C449.485382,484.660767 447.898712,485.907440 449.487427,488.016785 
M427.374054,477.959290 
	C427.619354,480.189575 426.099274,483.431915 430.127075,483.634125 
	C434.086182,483.832886 438.066986,483.715668 442.033783,483.592468 
	C443.936890,483.533417 445.031036,482.247864 445.305237,480.424042 
	C445.546539,478.819214 444.858582,477.520508 443.524261,476.590240 
	C440.777435,474.675140 430.552246,475.041382 427.374054,477.959290 
M440.938293,496.911621 
	C443.488647,496.721710 445.656921,495.944275 445.552643,492.881134 
	C445.444824,489.712677 443.089752,488.659424 440.443726,488.544403 
	C437.471375,488.415253 434.471924,488.915405 431.499176,488.789581 
	C428.672546,488.669891 427.184723,489.273895 427.212189,492.544495 
	C427.239014,495.735596 428.349823,497.135406 431.584717,496.975311 
	C434.400848,496.835907 437.229309,496.946655 440.938293,496.911621 
z"/>
<path fill="#000000" opacity="1.000000" stroke="none" 
	d="
M591.645935,563.931030 
	C591.651062,551.133240 591.752502,538.823364 591.605896,526.516541 
	C591.559387,522.615295 592.643555,520.753052 596.928223,520.707703 
	C601.541687,520.658813 602.461914,522.788757 602.408264,526.845093 
	C602.234497,539.983154 602.258911,553.125793 602.390930,566.264771 
	C602.429688,570.114929 601.962097,572.543274 597.107971,572.508484 
	C592.492737,572.475342 591.235107,570.459229 591.641113,566.415222 
	C591.707214,565.756653 591.647705,565.085510 591.645935,563.931030 
z"/>
<path fill="#000000" opacity="1.000000" stroke="none" 
	d="
M544.295776,479.010254 
	C542.924805,483.354523 541.096069,482.768219 539.255188,479.831543 
	C536.610657,475.612915 525.296997,473.619568 521.675293,476.808716 
	C520.566895,477.784729 520.226929,479.032043 520.468445,480.413696 
	C520.861572,482.663330 522.773560,483.229614 524.548218,483.465057 
	C528.495117,483.988708 532.497925,484.090973 536.444519,484.616577 
	C542.727051,485.453247 545.484375,488.505768 545.166199,493.922241 
	C544.868103,498.997925 541.712036,501.942566 535.818176,502.233551 
	C531.671997,502.438232 527.493896,502.470306 523.354065,502.204834 
	C518.491943,501.892975 515.483887,498.888000 514.968079,494.461212 
	C514.804077,493.053467 514.802612,491.734833 516.388916,491.152496 
	C517.806396,490.632202 519.406006,490.919922 519.747742,492.350769 
	C520.934387,497.320129 524.696350,496.949005 528.392761,496.910187 
	C530.554199,496.887482 532.717896,496.945770 534.876831,496.865936 
	C537.416870,496.772064 539.621033,496.051117 539.566406,492.943481 
	C539.517029,490.141449 537.497009,489.466522 535.140076,489.269867 
	C531.497559,488.965881 527.859985,488.602966 524.218445,488.286407 
	C517.891296,487.736328 514.741272,484.773773 514.910156,479.507233 
	C515.093750,473.782501 518.298889,470.853333 524.733582,470.671143 
	C528.056641,470.577026 531.386780,470.576233 534.709900,470.669189 
	C540.826355,470.840302 542.791687,472.512146 544.295776,479.010254 
z"/>
<path fill="#000000" opacity="1.000000" stroke="none" 
	d="
M561.699585,496.838562 
	C561.697693,489.537354 561.846863,482.715332 561.640381,475.904144 
	C561.525879,472.126678 562.691895,470.423126 566.716492,470.578979 
	C572.859863,470.816925 579.018799,470.644684 585.171021,470.667755 
	C586.911377,470.674286 588.755554,470.856079 588.702515,473.154968 
	C588.648132,475.510620 586.712708,475.428223 585.022278,475.430450 
	C580.532776,475.436432 576.040527,475.516418 571.554626,475.386017 
	C568.288025,475.291046 567.207520,476.749207 567.219482,479.903564 
	C567.231934,483.181458 568.937500,483.808929 571.657471,483.688293 
	C573.814514,483.592682 575.981262,483.637878 578.140869,483.707703 
	C579.781372,483.760712 581.822144,483.630615 581.908142,485.939545 
	C582.011902,488.727295 579.664978,488.298431 577.928589,488.388824 
	C575.771851,488.501129 573.604797,488.531982 571.446289,488.464996 
	C568.723999,488.380554 567.078796,489.023651 567.181396,492.330505 
	C567.275024,495.348358 567.988770,497.046387 571.398499,496.931244 
	C575.716125,496.785461 580.044312,496.885742 584.366272,496.968872 
	C586.372498,497.007477 588.719849,497.034912 588.658569,499.877472 
	C588.602356,502.489655 586.383606,502.315857 584.567322,502.324982 
	C578.581421,502.355042 572.592041,502.211945 566.610413,502.373474 
	C562.920044,502.473145 561.390625,500.899689 561.699585,496.838562 
z"/>
<path fill="#000000" opacity="1.000000" stroke="none" 
	d="
M466.254150,498.239380 
	C470.451630,490.067993 474.486603,482.224731 478.498779,474.369904 
	C479.508301,472.393494 480.473389,470.596771 483.227966,470.682281 
	C485.780396,470.761505 486.545502,472.546326 487.450684,474.324280 
	C491.957336,483.176361 497.004364,491.768921 500.834930,501.205688 
	C498.024628,502.964783 495.961700,502.482819 494.834137,499.936462 
	C493.422150,496.747894 491.054108,496.154205 487.964417,496.339142 
	C485.144196,496.507996 482.300323,496.485107 479.476837,496.345184 
	C475.829041,496.164459 472.513458,496.251038 470.858215,500.431000 
	C470.171936,502.164124 468.404907,502.741516 466.639099,501.986206 
	C464.883911,501.235474 465.676331,499.808105 466.254150,498.239380 
M489.373535,489.793732 
	C487.575012,485.677155 485.929199,481.471680 482.738647,477.297913 
	C480.535583,482.402527 477.614838,486.218903 476.203979,491.625977 
	C481.122314,491.190308 485.326599,493.062958 489.373535,489.793732 
z"/>
</svg>