<svg version="1.1" id="Layer_1" xmlns="http://www.w3.org/2000/svg" xmlns:xlink="http://www.w3.org/1999/xlink" x="0px" y="0px"
	 width="100%" viewBox="0 0 896 1024" enable-background="new 0 0 896 1024" xml:space="preserve">
<path fill="#000000" opacity="1.000000" stroke="none" 
	d="
M524.642334,578.473083 
	C524.088135,576.932556 523.691284,575.716553 523.173279,574.129272 
	C514.831543,581.704712 505.092255,583.814392 494.373779,583.432312 
	C478.227356,582.856750 465.899323,574.272827 460.957367,558.882874 
	C456.115234,543.803833 456.279938,528.317566 459.422424,512.996887 
	C465.360321,484.047638 495.400848,477.296722 515.325012,487.080383 
	C516.791870,487.800690 518.240234,488.558777 519.692688,489.296997 
	C521.569031,487.456604 520.910889,485.349670 520.927551,483.463470 
	C521.002747,474.972168 520.841980,466.477692 520.993652,457.988434 
	C521.106934,451.650879 523.192566,449.756775 529.558960,449.731995 
	C539.049927,449.695038 548.541443,449.678589 558.032166,449.739990 
	C564.391724,449.781128 566.281616,451.723022 566.285339,458.197754 
	C566.307312,496.495331 566.307434,534.792908 566.290527,573.090454 
	C566.287537,579.794495 564.753601,581.626587 558.277283,581.779846 
	C549.624573,581.984497 540.961914,581.895142 532.306030,581.766357 
	C529.527527,581.725098 526.521362,581.745300 524.642334,578.473083 
M506.875946,547.639099 
	C513.178345,550.994812 518.504944,549.939026 520.082214,544.562195 
	C522.215820,537.288879 522.407410,529.796997 520.450684,522.421509 
	C519.543884,519.003601 516.895630,517.396118 513.345703,517.235291 
	C509.769531,517.073120 506.403687,517.702271 505.236542,521.511353 
	C502.599030,530.119019 502.102875,538.749023 506.875946,547.639099 
z"/>
<path fill="#000000" opacity="1.000000" stroke="none" 
	d="
M316.579376,581.868408 
	C307.292664,581.844238 298.457489,581.987305 289.635895,581.706177 
	C283.673950,581.516235 281.925049,579.587708 281.916077,573.667786 
	C281.857727,535.179871 281.848145,496.691742 281.903717,458.203766 
	C281.913025,451.750519 284.003632,449.765503 290.269135,449.730927 
	C299.266083,449.681305 308.263916,449.670563 317.260559,449.744354 
	C323.297180,449.793884 325.275024,451.795868 325.293518,457.942200 
	C325.341736,473.937042 325.300018,489.932190 325.294373,505.927216 
	C325.293732,507.712341 325.294281,509.497498 326.209412,511.578674 
	C330.493286,504.573456 334.941162,497.661469 338.997803,490.527039 
	C341.325653,486.433044 344.388428,484.601776 349.094025,484.678284 
	C359.588013,484.848907 370.086639,484.733826 380.583374,484.734009 
	C383.278290,484.734070 386.081818,484.620697 387.613098,487.441620 
	C389.265656,490.486023 387.440704,492.840820 385.794495,495.183533 
	C378.899597,504.995453 372.129547,514.898682 365.043732,524.570618 
	C362.892303,527.507324 363.009644,529.651733 364.942413,532.554749 
	C373.158203,544.894897 381.183624,557.361877 389.267487,569.789673 
	C390.084015,571.044922 390.938354,572.294861 391.582153,573.639709 
	C393.749298,578.166321 392.196136,581.353210 387.129181,581.578369 
	C378.149261,581.977356 369.062256,581.094666 360.171844,582.095886 
	C348.929230,583.362000 341.967834,579.281494 337.391785,569.063293 
	C334.445984,562.485474 330.073853,556.546448 325.289215,550.583252 
	C325.289215,557.995789 325.307953,565.408386 325.283875,572.820862 
	C325.260590,579.999023 324.309662,581.018738 316.579376,581.868408 
z"/>
<path fill="#000000" opacity="1.000000" stroke="none" 
	d="
M643.848145,519.901489 
	C649.182800,520.893616 654.051331,521.979980 658.710571,523.837891 
	C676.420227,530.899780 684.334839,549.118652 676.179077,564.240784 
	C672.265564,571.497070 665.942871,576.204224 658.346924,578.708984 
	C638.854370,585.136719 619.116577,585.719055 599.534607,579.152039 
	C590.819763,576.229431 583.388733,571.174316 579.193726,562.511230 
	C575.519165,554.922913 577.917236,551.081055 586.323425,550.999084 
	C592.983765,550.934082 599.649353,551.116760 606.304626,550.919312 
	C612.566711,550.733521 618.629944,550.891602 623.759644,555.223511 
	C624.487244,555.838013 625.536926,556.185669 626.494446,556.389648 
	C628.522400,556.821533 630.715454,556.962463 631.519226,554.518799 
	C632.237793,552.334473 630.595215,551.134888 628.856201,550.330750 
	C623.967102,548.069824 618.622375,547.509033 613.446472,546.322083 
	C604.144409,544.188904 594.994446,541.690918 587.821472,534.842957 
	C574.439514,522.067444 577.106262,502.218567 593.670593,491.432312 
	C605.059326,484.016266 617.848450,482.338074 631.010315,483.009460 
	C642.276489,483.584198 653.083801,486.230713 662.615967,492.646545 
	C667.640381,496.028381 672.092285,500.049255 674.389526,505.873810 
	C676.751343,511.862030 674.497559,515.256897 668.132874,515.314209 
	C660.806458,515.380188 653.475647,515.193848 646.153259,515.376831 
	C640.728455,515.512329 635.500732,515.432068 631.159973,511.476349 
	C630.472351,510.849670 629.383057,510.527161 628.427673,510.360474 
	C626.615723,510.044281 624.493408,509.714783 623.712708,511.935089 
	C622.925049,514.175110 624.742126,515.318115 626.437561,516.047485 
	C631.848877,518.375366 637.682251,518.923096 643.848145,519.901489 
z"/>
<path fill="#000000" opacity="1.000000" stroke="none" 
	d="
M400.652954,562.995422 
	C400.658020,539.505005 400.650757,516.513428 400.674988,493.521881 
	C400.682648,486.251099 402.152740,484.789459 409.465302,484.761993 
	C418.461884,484.728210 427.459259,484.696594 436.455139,484.785217 
	C442.426880,484.843994 444.278748,486.677856 444.288269,492.555389 
	C444.332306,519.711975 444.333832,546.868774 444.305542,574.025452 
	C444.299469,579.843201 442.726898,581.682190 437.026489,581.796570 
	C427.534576,581.987061 418.031982,581.999756 408.541412,581.772278 
	C402.169830,581.619568 400.718628,579.853821 400.653076,573.490723 
	C400.618744,570.158936 400.650726,566.826416 400.652954,562.995422 
z"/>
<path fill="#000000" opacity="1.000000" stroke="none" 
	d="
M423.997864,442.645142 
	C428.826538,442.660645 433.156647,442.636230 437.485291,442.703949 
	C441.329834,442.764130 443.321014,444.794312 443.336182,448.635345 
	C443.363831,455.628998 443.331696,462.622894 443.331573,469.616669 
	C443.331512,473.225586 441.503204,475.296143 437.953156,475.531281 
	C427.645142,476.213928 417.322144,476.097565 407.013062,475.605682 
	C403.491913,475.437683 401.677460,473.169678 401.669098,469.607056 
	C401.652710,462.613342 401.634827,455.619476 401.668243,448.625916 
	C401.688171,444.458771 403.997681,442.656128 408.012207,442.667358 
	C413.174286,442.681793 418.336487,442.654602 423.997864,442.645142 
z"/>
<path fill="#000000" opacity="1.000000" stroke="none" 
	d="
M252.626373,556.005615 
	C260.398315,555.749390 263.967651,558.904663 264.262421,566.050049 
	C264.413361,569.708862 264.176697,573.384216 264.343018,577.041748 
	C264.482880,580.116577 263.511505,581.703796 260.165131,581.671387 
	C252.673584,581.598694 245.180176,581.710571 237.687592,581.756165 
	C234.143204,581.777771 232.563919,580.124939 232.813599,576.505737 
	C233.121857,572.037781 232.343903,567.517761 233.556412,563.084167 
	C235.004303,557.789795 239.763672,554.733032 244.559906,557.006348 
	C247.753479,558.520020 249.830154,557.605408 252.626373,556.005615 
M257.820557,567.052734 
	C257.157074,564.309998 255.203354,563.431946 253.027283,564.780090 
	C250.313889,566.461060 251.163101,569.526123 251.599777,572.010498 
	C251.980606,574.177124 254.150284,573.880310 255.685318,573.536499 
	C259.011108,572.791748 257.717133,569.980652 257.820557,567.052734 
M243.726822,565.368347 
	C239.983978,563.818848 239.358444,566.196472 239.315323,569.007263 
	C239.283798,571.062744 238.706284,573.730408 242.186920,573.583984 
	C245.538879,573.443054 244.861816,570.776611 244.925522,568.744324 
	C244.955139,567.799500 244.483765,566.838989 243.726822,565.368347 
z"/>
<path fill="#000000" opacity="1.000000" stroke="none" 
	d="
M258.039062,484.683105 
	C265.140076,489.125671 266.951263,501.118591 261.698761,507.194611 
	C260.079803,509.067352 257.872864,511.510376 255.430511,509.587524 
	C253.094620,507.748444 253.644821,504.713684 255.767380,502.535980 
	C257.431610,500.828491 257.938538,498.870209 257.852844,496.629852 
	C257.786591,494.896240 257.545624,493.045746 255.492935,492.765411 
	C253.641251,492.512512 253.039185,494.255615 252.572922,495.650909 
	C251.731186,498.169678 251.122879,500.765656 250.312485,503.295868 
	C248.996597,507.404297 246.149765,509.762054 241.814743,509.676270 
	C237.461884,509.590179 234.770264,506.988525 233.525543,502.943848 
	C231.865936,497.550964 232.164932,492.380402 236.040436,487.940704 
	C237.468430,486.304871 239.611771,484.497009 241.636093,486.005188 
	C243.955154,487.732910 243.278290,490.570618 241.793472,492.739746 
	C240.767563,494.238556 239.293839,495.401611 239.329529,497.448578 
	C239.357071,499.027802 239.581619,500.599182 241.270691,501.129303 
	C243.256271,501.752502 243.924652,500.046204 244.400986,498.691589 
	C245.335846,496.032928 245.877579,493.233246 246.854507,490.592743 
	C248.898972,485.066956 251.602707,483.636505 258.039062,484.683105 
z"/>
<path fill="#000000" opacity="1.000000" stroke="none" 
	d="
M232.928802,454.493286 
	C233.395660,451.539948 235.008194,450.701691 237.305710,451.224182 
	C239.433929,451.708160 239.354614,453.564606 239.382401,455.234497 
	C239.418335,457.394409 239.367203,459.555969 239.416138,461.715393 
	C239.457413,463.537231 239.272797,465.569885 241.942627,465.753113 
	C244.764893,465.946808 245.172623,463.882507 245.381668,461.842560 
	C245.584366,459.864563 245.578430,457.862152 245.602997,455.869690 
	C245.630630,453.630402 246.154388,451.829590 248.911957,451.988831 
	C251.377396,452.131226 251.705978,453.874451 251.723999,455.866882 
	C251.743515,458.021179 251.833817,460.175354 251.922272,462.328400 
	C252.007385,464.400452 252.723999,465.903046 255.169144,465.776123 
	C257.504364,465.654846 257.655273,463.998322 257.670197,462.244293 
	C257.692871,459.585541 257.705872,456.926697 257.730255,454.267944 
	C257.750061,452.105347 258.674988,450.827515 261.005127,450.808441 
	C263.373413,450.789062 264.245270,452.115051 264.251038,454.262268 
	C264.265259,459.580017 264.251099,464.897858 264.275513,470.215546 
	C264.286743,472.667358 263.040161,473.992828 260.662964,474.013306 
	C252.687515,474.082062 244.711075,474.090363 236.735397,474.047577 
	C233.722824,474.031433 232.813416,472.104553 232.841553,469.398651 
	C232.891663,464.579712 232.876587,459.760071 232.928802,454.493286 
z"/>
<path fill="#000000" opacity="1.000000" stroke="none" 
	d="
M240.220795,539.861572 
	C238.774887,539.300232 237.707260,538.820068 236.592560,538.508118 
	C233.693207,537.696716 232.792374,535.715027 232.833389,532.871460 
	C232.873978,530.059448 233.848526,528.167969 236.621475,527.162354 
	C244.262299,524.391296 251.851288,521.477478 259.484070,518.683899 
	C260.954407,518.145752 262.957855,516.945129 263.820435,519.094666 
	C264.654755,521.173706 264.982178,523.572449 262.652771,525.392334 
	C256.654633,530.078430 256.615967,535.589417 262.451843,540.131470 
	C264.535217,541.752991 264.669220,542.662415 263.257019,548.187073 
	C255.658340,545.450500 248.117966,542.734985 240.220795,539.861572 
M248.548645,530.371216 
	C246.842834,531.200562 244.773224,531.316284 243.079269,533.282043 
	C245.084473,534.044128 246.841995,534.794312 248.653519,535.376648 
	C250.366119,535.927124 251.672058,535.401978 251.694366,533.412842 
	C251.712387,531.807800 252.508209,529.329956 248.548645,530.371216 
z"/>
</svg>