<svg version="1.1" id="Layer_1" xmlns="http://www.w3.org/2000/svg" xmlns:xlink="http://www.w3.org/1999/xlink" x="0px" y="0px"
	 width="100%" viewBox="0 0 896 1024" enable-background="new 0 0 896 1024" xml:space="preserve">
<path fill="#000000" opacity="1.000000" stroke="none" 
	d="
M171.038757,548.000000 
	C171.025864,555.663513 171.086761,562.828247 170.965118,569.989929 
	C170.916199,572.869812 170.590698,576.198608 166.713287,576.111389 
	C162.848969,576.024536 162.729248,572.718018 162.725998,569.818787 
	C162.700012,546.661987 162.743057,523.505066 162.671234,500.348541 
	C162.661346,497.160095 163.936508,495.089630 166.535004,493.353699 
	C187.310608,479.474426 208.055847,465.549255 228.745926,451.542938 
	C231.567627,449.632782 234.094955,449.471436 237.110291,450.950714 
	C270.602081,467.381195 304.112885,483.773102 337.655426,500.099640 
	C340.781769,501.621368 342.078644,503.929077 342.079468,507.219879 
	C342.084717,528.210815 342.107483,549.201721 342.077484,570.192627 
	C342.073517,572.962524 341.651093,575.976868 338.133179,576.074707 
	C334.301422,576.181274 333.785034,573.096191 333.780731,570.090759 
	C333.753235,550.932251 333.638306,531.772400 333.857056,512.616394 
	C333.904419,508.472260 332.426819,506.373779 328.807556,504.631561 
	C298.197632,489.896790 267.663971,475.003601 237.116989,460.138336 
	C235.004333,459.110229 233.279755,458.150696 230.750000,459.880066 
	C212.329086,472.472748 193.822617,484.942444 175.219833,497.264801 
	C172.022247,499.382874 170.924377,501.828400 170.964737,505.518921 
	C171.117737,519.511230 171.034271,533.506104 171.038757,548.000000 
z"/>
<path fill="#000000" opacity="1.000000" stroke="none" 
	d="
M711.317383,542.185547 
	C701.910400,539.460938 699.257507,535.776184 699.701721,526.575928 
	C700.077698,518.789429 704.047241,513.999695 712.394897,513.119629 
	C720.625061,512.251953 728.984558,511.932709 737.235168,513.598450 
	C742.817566,514.725525 745.910706,518.470032 747.031433,523.695312 
	C747.515991,525.954834 749.177368,529.517334 745.365173,530.475281 
	C742.029297,531.313538 737.938843,532.479553 736.387451,527.208923 
	C735.588928,524.496094 733.371460,523.366394 730.593323,523.364685 
	C725.766541,523.361633 720.938904,523.312073 716.113403,523.391174 
	C713.095093,523.440613 710.803955,524.870789 710.590820,528.017761 
	C710.362549,531.389221 712.740662,532.520203 715.745544,532.789246 
	C722.531067,533.396729 729.328735,533.922852 736.087830,534.755554 
	C744.071106,535.738892 747.982605,539.719482 748.318298,546.721191 
	C748.809387,556.966003 745.955505,561.915161 737.450989,563.467712 
	C728.436646,565.113403 719.207764,565.156250 710.196350,563.359375 
	C703.653870,562.054749 699.973999,557.176880 699.693237,551.069214 
	C699.588379,548.788208 699.633911,546.502808 702.619385,546.240295 
	C705.341980,546.000793 708.988953,544.906189 710.042664,548.349915 
	C711.612244,553.479370 715.146667,553.805237 719.367493,553.707520 
	C723.526611,553.611267 727.690613,553.730530 731.849731,553.635437 
	C734.781677,553.568420 737.216125,552.432800 737.511292,549.186096 
	C737.816162,545.832458 735.614441,544.460999 732.585693,544.174133 
	C725.638367,543.516052 718.688171,542.887695 711.317383,542.185547 
z"/>
<path fill="#000000" opacity="1.000000" stroke="none" 
	d="
M440.725708,559.719666 
	C440.707275,545.745056 440.833160,532.244141 440.623260,518.748413 
	C440.553070,514.235413 442.018341,512.506348 446.664307,512.614929 
	C457.490814,512.867920 468.328888,512.802185 479.158844,512.638245 
	C483.081573,512.578796 484.419403,514.086304 484.410217,517.942383 
	C484.401276,521.683533 483.333527,523.463684 479.296204,523.365906 
	C471.634888,523.180237 463.962646,523.451721 456.300751,523.277893 
	C452.649933,523.195190 451.288971,524.481506 451.281616,528.199646 
	C451.274170,531.969299 452.746429,533.221497 456.346313,533.067749 
	C460.503296,532.890320 464.676361,533.127380 468.841858,533.098938 
	C472.715576,533.072388 473.382202,535.311829 473.396973,538.635010 
	C473.412781,542.182251 471.841583,543.357605 468.546173,543.283936 
	C464.049133,543.183411 459.545624,543.369019 455.048676,543.266357 
	C450.751495,543.168335 451.453369,546.181030 451.373169,548.790771 
	C451.290802,551.470459 451.360840,553.787537 455.149994,553.723022 
	C463.146851,553.586914 471.150146,553.812561 479.146210,553.654663 
	C483.048187,553.577637 484.415405,555.133362 484.408142,558.987610 
	C484.401001,562.775024 483.213013,564.415527 479.222839,564.353027 
	C468.226410,564.180908 457.225525,564.272461 446.226501,564.296082 
	C443.323364,564.302307 440.772430,563.968018 440.725708,559.719666 
z"/>
<path fill="#000000" opacity="1.000000" stroke="none" 
	d="
M416.501587,553.688293 
	C421.398163,553.869141 423.398804,551.258606 423.547882,547.272522 
	C423.733673,542.305115 427.138428,542.965088 430.269806,542.970764 
	C433.985779,542.977539 434.412750,545.386047 434.346466,548.381836 
	C434.143616,557.552124 428.360291,563.815674 419.120941,564.203369 
	C412.477722,564.482178 405.801849,564.494019 399.160675,564.187866 
	C389.638611,563.748962 383.916687,557.688721 383.700378,548.088928 
	C383.554199,541.603394 383.529449,535.107239 383.719940,528.623779 
	C384.001190,519.050415 389.841614,513.127502 399.428040,512.769958 
	C405.741669,512.534546 412.079651,512.519775 418.391815,512.775024 
	C428.180786,513.171021 434.226105,519.312195 434.341980,528.412842 
	C434.379028,531.324585 433.691895,533.446228 430.283447,533.249878 
	C427.536407,533.091553 423.905731,534.485352 423.585876,529.623962 
	C423.270386,524.828735 420.431061,523.112610 415.838348,523.282227 
	C410.853455,523.466370 405.853729,523.438171 400.866089,523.299866 
	C396.899261,523.189941 394.759399,525.266663 394.590118,528.862305 
	C394.293213,535.168762 394.307526,541.505310 394.546356,547.815796 
	C394.692993,551.690063 396.961456,553.799194 401.085327,553.716003 
	C406.074860,553.615234 411.067963,553.693359 416.501587,553.688293 
z"/>
<path fill="#000000" opacity="1.000000" stroke="none" 
	d="
M651.820496,560.885742 
	C649.146240,566.098328 644.716614,564.255127 641.014343,563.972839 
	C638.693542,563.795959 639.264832,561.445618 639.984741,559.953796 
	C647.207947,544.986633 654.392456,529.998657 661.848755,515.147522 
	C663.787231,511.286438 673.267639,511.442535 675.179016,515.335205 
	C682.430237,530.102478 689.429443,544.993469 696.511841,559.843506 
	C697.939209,562.836365 696.832642,564.104797 693.646301,564.307190 
	C689.427673,564.575134 685.618530,564.490723 684.235718,559.339722 
	C683.437744,556.366882 681.298767,555.274658 678.187561,555.354980 
	C672.040222,555.513672 665.867676,555.674866 659.740173,555.287537 
	C655.471802,555.017761 653.161133,556.686340 651.820496,560.885742 
M662.527466,546.118469 
	C667.442078,546.118469 672.356689,546.118469 678.153137,546.118469 
	C674.816956,538.835815 671.908081,532.485962 668.459961,524.958923 
	C665.223022,531.988831 662.607849,537.706909 659.955505,543.407776 
	C659.031921,545.392944 659.668762,546.226440 662.527466,546.118469 
z"/>
<path fill="#000000" opacity="1.000000" stroke="none" 
	d="
M588.282715,533.998962 
	C588.043091,540.137756 588.901245,545.827698 587.698242,551.417664 
	C585.988159,559.363159 581.283936,563.723328 573.231628,564.144958 
	C566.262878,564.509888 559.246521,564.496399 552.275696,564.153259 
	C543.932678,563.742676 538.755127,558.809082 537.663086,550.492615 
	C536.206238,539.397339 537.250793,528.229614 537.067078,517.095764 
	C537.002441,513.180115 539.541809,512.651123 542.756897,512.661011 
	C546.059998,512.671204 548.286560,513.455078 548.269775,517.316101 
	C548.227905,526.966797 548.233276,536.617981 548.288940,546.268616 
	C548.323364,552.238159 549.703613,553.612976 555.634216,553.690674 
	C560.292542,553.751709 564.952698,553.746460 569.611206,553.695251 
	C575.605103,553.629395 576.841919,552.441406 576.908325,546.260742 
	C577.006653,537.109924 576.888733,527.956909 576.975586,518.805847 
	C577.027771,513.309631 578.070129,512.563293 583.509949,512.664795 
	C586.915039,512.728271 588.329895,514.210938 588.289246,517.525818 
	C588.223999,522.849609 588.278564,528.174866 588.282715,533.998962 
z"/>
<path fill="#000000" opacity="1.000000" stroke="none" 
	d="
M248.586884,487.121094 
	C248.686218,478.184967 250.432983,476.982208 258.006348,480.535889 
	C273.519104,487.815125 288.951355,495.266357 304.478638,502.514191 
	C307.690186,504.013245 309.418518,505.890900 309.381500,509.679871 
	C309.233551,524.823914 309.324799,539.970215 309.315704,555.115723 
	C309.314606,556.938293 309.474731,558.842468 307.800934,560.158569 
	C306.690887,561.031433 305.454010,561.427246 304.082947,560.804932 
	C302.134399,559.920593 301.658630,558.240173 301.658051,556.282776 
	C301.655060,546.130371 300.692535,535.867615 301.864655,525.853943 
	C303.283539,513.731750 299.325317,507.018402 287.544098,503.109802 
	C277.214783,499.682892 267.613190,494.062531 257.885132,489.502441 
	C255.611206,491.227509 256.362518,493.217560 256.354279,494.917999 
	C256.288025,508.565247 256.319244,522.213013 256.318146,535.860596 
	C256.318024,537.192017 256.301880,538.523376 256.291290,539.854797 
	C256.269867,542.549133 255.190155,544.524048 252.267776,544.476929 
	C249.568665,544.433472 248.653778,542.475037 248.623901,540.031311 
	C248.597458,537.867981 248.614868,535.704163 248.613602,533.540527 
	C248.604645,518.228577 248.595886,502.916656 248.586884,487.121094 
z"/>
<path fill="#000000" opacity="1.000000" stroke="none" 
	d="
M181.923553,549.418213 
	C181.750443,535.343750 181.746109,521.700867 181.622086,508.059052 
	C181.597015,505.301697 182.487305,503.286896 184.781784,501.737762 
	C194.846695,494.942413 204.821579,488.012268 214.941330,481.300232 
	C219.018936,478.595734 222.192841,480.243683 222.229843,485.181641 
	C222.368240,503.650543 222.288025,522.121094 222.280502,540.591064 
	C222.279388,543.322388 221.489151,545.898193 218.405151,546.038452 
	C214.863586,546.199585 214.138123,543.251221 214.111710,540.483093 
	C213.997406,528.503723 214.072357,516.522705 213.984024,504.542969 
	C213.956451,500.802063 214.486176,496.996490 213.325455,492.578552 
	C204.987564,497.415741 197.605896,502.684113 190.291046,508.033356 
	C188.814835,509.112915 189.365356,511.130432 189.360657,512.761597 
	C189.327591,524.242798 189.328323,535.724243 189.325104,547.205566 
	C189.324570,549.125916 189.022980,550.956848 187.050995,551.812866 
	C184.823822,552.779663 183.207474,551.806824 181.923553,549.418213 
z"/>
<path fill="#000000" opacity="1.000000" stroke="none" 
	d="
M531.342529,563.406494 
	C518.740845,564.980896 506.448914,564.044373 494.171906,564.202209 
	C491.670929,564.234375 490.692078,562.672974 490.692719,560.312378 
	C490.696716,545.845215 490.726044,531.377869 490.659515,516.911011 
	C490.640015,512.668884 493.421753,512.750671 496.410736,512.680420 
	C499.603088,512.605286 501.409607,513.563049 501.372009,517.181152 
	C501.263275,527.656311 501.480621,538.136108 501.275116,548.608276 
	C501.198334,552.522888 502.492279,553.938721 506.430634,553.769409 
	C512.406006,553.512451 518.400696,553.702271 524.387207,553.708191 
	C532.716736,553.716431 533.419678,554.622742 531.342529,563.406494 
z"/>
<path fill="#000000" opacity="1.000000" stroke="none" 
	d="
M607.340698,548.684082 
	C606.918945,552.644165 608.527222,553.828918 611.952759,553.747864 
	C619.101501,553.578674 626.260742,553.842957 633.408752,553.659180 
	C637.556458,553.552612 638.426941,555.646851 638.411194,559.227295 
	C638.395630,562.759216 637.157593,564.388367 633.442261,564.343079 
	C622.797668,564.213013 612.149658,564.207764 601.504822,564.321838 
	C597.796509,564.361633 596.574768,562.768860 596.604370,559.206665 
	C596.718689,545.400879 596.745483,531.592590 596.597046,517.787476 
	C596.554016,513.780273 598.250549,512.627808 601.992432,512.630127 
	C605.727539,512.632446 607.462341,513.768799 607.393982,517.784790 
	C607.221375,527.929016 607.339294,538.078064 607.340698,548.684082 
z"/>
<path fill="#000000" opacity="1.000000" stroke="none" 
	d="
M414.087158,486.714233 
	C413.117188,492.140442 409.495117,493.905182 405.013885,494.118103 
	C399.698517,494.370605 394.363098,494.179626 389.036926,494.234711 
	C386.161957,494.264435 384.734131,493.013672 384.753326,490.047424 
	C384.805023,482.057373 384.819977,474.066559 384.763275,466.076660 
	C384.743347,463.268829 386.242462,462.156525 388.761353,462.115479 
	C394.745056,462.017883 400.743927,461.569763 406.692169,462.661163 
	C411.891357,463.615173 415.374573,467.813538 413.572815,472.728333 
	C412.054901,476.868958 412.381744,480.170349 414.033539,483.838898 
	C414.348083,484.537415 414.119720,485.480438 414.087158,486.714233 
M391.453033,480.770966 
	C388.843262,486.912567 389.883514,488.776398 395.974274,488.830078 
	C398.294891,488.850525 400.616241,488.843475 402.936676,488.810638 
	C405.716003,488.771332 408.584137,488.572937 408.553284,484.830750 
	C408.522186,481.054077 405.767944,480.351868 402.680328,480.368561 
	C399.200684,480.387360 395.721344,480.453918 391.453033,480.770966 
M403.778229,475.647644 
	C406.354614,475.455048 408.575439,474.539001 408.308228,471.561554 
	C408.042755,468.603577 405.776581,467.459503 402.991028,467.394592 
	C400.335754,467.332672 397.669037,467.498444 395.024200,467.317749 
	C391.744843,467.093750 390.169342,468.087860 390.190033,471.733246 
	C390.210602,475.356415 392.112213,475.801544 394.948090,475.696014 
	C397.601135,475.597290 400.260590,475.671143 403.778229,475.647644 
z"/>
<path fill="#000000" opacity="1.000000" stroke="none" 
	d="
M478.548950,483.506561 
	C480.602478,482.524475 482.443787,482.550049 482.956024,484.578156 
	C484.004944,488.731415 487.029480,488.869446 490.337128,488.805298 
	C492.835785,488.756836 495.335602,488.772430 497.834686,488.740204 
	C500.416779,488.706848 502.530579,488.006012 502.627289,484.913544 
	C502.718719,481.990540 500.694916,481.376923 498.344696,481.171265 
	C494.696350,480.852081 491.046112,480.548859 487.403076,480.176239 
	C480.966888,479.517914 477.840057,476.639648 477.854156,471.460754 
	C477.868500,466.176483 480.807068,463.154877 487.054504,462.293121 
	C491.701965,461.652100 496.377472,461.724792 500.967407,462.784424 
	C504.815979,463.672943 506.966217,466.198761 507.274689,470.159973 
	C507.377014,471.473785 507.491913,472.971893 505.684601,473.333801 
	C504.265289,473.618042 503.267212,473.174469 502.388153,471.804932 
	C499.754761,467.702271 489.329193,465.604736 485.238586,468.169617 
	C483.797974,469.072876 483.216248,470.329407 483.452301,471.973206 
	C483.698578,473.688354 484.862946,474.447296 486.421204,474.939636 
	C490.161041,476.121277 494.068573,475.319122 497.831909,475.998657 
	C501.706757,476.698303 505.927582,476.783447 507.543640,481.611542 
	C509.411163,487.190765 506.991547,492.164581 501.290924,493.561188 
	C496.048737,494.845520 490.659973,494.625519 485.405090,493.846893 
	C480.063080,493.055298 477.926880,489.657166 478.548950,483.506561 
z"/>
<path fill="#000000" opacity="1.000000" stroke="none" 
	d="
M550.952637,466.573486 
	C545.881531,467.880646 541.049011,467.185211 536.244629,467.302765 
	C532.973389,467.382843 529.831360,466.868134 530.135559,471.969574 
	C530.420898,476.754608 533.546448,475.389679 536.187744,475.443115 
	C538.178772,475.483398 540.170166,475.540527 542.159058,475.637512 
	C543.590332,475.707245 544.883545,476.138031 544.930969,477.848480 
	C544.987732,479.895447 543.467590,480.241852 541.877808,480.280212 
	C539.216980,480.344360 536.550049,480.429352 533.893372,480.319672 
	C530.972656,480.199097 530.194336,481.699127 530.197876,484.317078 
	C530.201477,486.974884 530.623596,488.900635 533.935425,488.828888 
	C538.591797,488.727966 543.252441,488.812897 547.911194,488.837585 
	C549.891418,488.848083 551.733582,489.214783 551.587463,491.764984 
	C551.457825,494.028168 549.648071,494.198578 547.930115,494.205627 
	C541.607727,494.231598 535.285034,494.189545 528.962708,494.219391 
	C526.088440,494.232971 524.690613,492.972656 524.712708,490.006714 
	C524.770935,482.187042 524.796753,474.365845 524.698364,466.546997 
	C524.661621,463.627838 525.888306,462.141510 528.756348,462.119843 
	C535.243652,462.070862 541.732971,462.007141 548.218384,462.121704 
	C550.755859,462.166504 552.470337,463.261841 550.952637,466.573486 
z"/>
<path fill="#000000" opacity="1.000000" stroke="none" 
	d="
M454.908691,488.602020 
	C450.364410,488.408356 446.202362,488.434845 442.048279,488.266022 
	C438.549622,488.123840 435.523773,488.333435 433.927795,492.306396 
	C433.048218,494.496002 430.898163,494.495972 429.157410,493.825317 
	C428.132050,492.497375 428.558105,491.547913 429.003052,490.664307 
	C433.268463,482.193695 437.492188,473.701019 441.871582,465.289520 
	C443.665619,461.843689 447.405701,460.922852 448.963867,463.715668 
	C454.277802,473.240204 459.125580,483.024841 464.224945,492.852203 
	C458.134949,496.286865 457.980774,490.183441 454.908691,488.602020 
M447.302460,483.653076 
	C448.996399,483.357178 450.980347,484.316467 452.565887,482.246552 
	C450.806488,478.037231 449.057648,473.700562 445.866669,469.372162 
	C443.362915,474.103760 440.608093,478.080933 439.418213,483.658508 
	C442.231262,483.658508 444.340393,483.658508 447.302460,483.653076 
z"/>
<path fill="#000000" opacity="1.000000" stroke="none" 
	d="
M470.826111,503.830811 
	C469.505188,505.776886 468.606018,507.677399 467.159393,508.960846 
	C465.291626,510.617950 462.840515,510.520660 460.563477,509.600372 
	C459.317657,509.096771 458.861420,507.938477 459.353851,506.708221 
	C460.367615,504.175232 460.470032,500.985657 463.735077,499.928802 
	C467.907104,498.578308 470.894104,500.076477 470.826111,503.830811 
z"/>
</svg>